<svg width="25" height="26" viewBox="0 0 25 26" fill="none" xmlns="http://www.w3.org/2000/svg">
<g clip-path="url(#clip0_3618_702)">
<path d="M8.70898 1.32227C6.21109 2.18881 4.05692 3.83353 2.56287 6.01485C1.06882 8.19617 0.313652 10.7991 0.408283 13.4413C0.502913 16.0836 1.44236 18.6258 3.08862 20.6947C4.73489 22.7635 7.00121 24.2499 9.55468 24.9355C11.6248 25.4697 13.7938 25.4932 15.875 25.0039C17.7604 24.5804 19.5035 23.6745 20.9336 22.375C22.422 20.9811 23.5024 19.208 24.0586 17.2461C24.6631 15.1126 24.7707 12.869 24.373 10.6875H12.748V15.5098H19.4805C19.3459 16.2789 19.0576 17.0129 18.6327 17.668C18.2078 18.3231 17.6552 18.8858 17.0078 19.3223C16.1857 19.8661 15.259 20.232 14.2871 20.3965C13.3124 20.5777 12.3126 20.5777 11.3379 20.3965C10.35 20.1922 9.41542 19.7845 8.59375 19.1992C7.27372 18.2648 6.28257 16.9374 5.76172 15.4063C5.23206 13.8465 5.23206 12.1555 5.76172 10.5957C6.13247 9.50238 6.74537 8.50691 7.55468 7.68359C8.48084 6.72412 9.65338 6.03828 10.9437 5.70132C12.2339 5.36437 13.5921 5.38932 14.8691 5.77344C15.8667 6.07967 16.779 6.61472 17.5332 7.33594C18.2923 6.58073 19.0501 5.82357 19.8066 5.06445C20.1973 4.65625 20.623 4.26758 21.0078 3.84961C19.8566 2.77827 18.5052 1.94464 17.0312 1.39648C14.3471 0.421855 11.4101 0.395663 8.70898 1.32227Z" fill="white"/>
<path d="M8.70898 1.32227C11.4099 0.395033 14.3469 0.420535 17.0312 1.39453C18.5055 1.94641 19.8562 2.78406 21.0059 3.85937C20.6152 4.27734 20.2031 4.66797 19.8047 5.07422C19.0469 5.83073 18.2897 6.58463 17.5332 7.33594C16.779 6.61472 15.8667 6.07967 14.8691 5.77344C13.5925 5.38797 12.2344 5.36158 10.9438 5.69715C9.65316 6.03273 8.47991 6.71731 7.55273 7.67578C6.74342 8.49909 6.13052 9.49456 5.75977 10.5879L1.71094 7.45312C3.16017 4.57922 5.66943 2.38091 8.70898 1.32227Z" fill="#E33629"/>
<path d="M0.636713 10.5586C0.854333 9.48007 1.21563 8.4356 1.71093 7.45312L5.75976 10.5957C5.2301 12.1555 5.2301 13.8465 5.75976 15.4062C4.4108 16.4479 3.06119 17.4948 1.71093 18.5469C0.470992 16.0787 0.0928316 13.2666 0.636713 10.5586Z" fill="#F8BD00"/>
<path d="M12.7481 10.6855H24.3731C24.7707 12.8671 24.6631 15.1107 24.0586 17.2441C23.5024 19.206 22.422 20.9792 20.9336 22.373C19.627 21.3535 18.3145 20.3418 17.0078 19.3223C17.6556 18.8853 18.2085 18.3221 18.6334 17.6663C19.0583 17.0105 19.3464 16.2757 19.4805 15.5059H12.7481C12.7461 13.9004 12.7481 12.293 12.7481 10.6855Z" fill="#587DBD"/>
<path d="M1.70898 18.5469C3.05924 17.5052 4.40885 16.4583 5.75781 15.4062C6.2797 16.9379 7.27228 18.2654 8.59375 19.1992C9.41798 19.7818 10.3546 20.1862 11.3438 20.3867C12.3185 20.568 13.3182 20.568 14.293 20.3867C15.2648 20.2222 16.1916 19.8563 17.0137 19.3125C18.3203 20.332 19.6328 21.3438 20.9395 22.3633C19.5096 23.6635 17.7664 24.5701 15.8809 24.9941C13.7996 25.4834 11.6307 25.46 9.56055 24.9258C7.92325 24.4886 6.3939 23.718 5.06836 22.6621C3.66535 21.5482 2.51944 20.1445 1.70898 18.5469Z" fill="#319F43"/>
</g>
<defs>
<clipPath id="clip0_3618_702">
<rect width="25" height="25" fill="white" transform="translate(0 0.5)"/>
</clipPath>
</defs>
</svg>
