<svg width="25" height="24" viewBox="0 0 25 24" fill="none" xmlns="http://www.w3.org/2000/svg">
<path d="M15.501 1.99902H6.50098C5.97054 1.99902 5.46184 2.20974 5.08676 2.58481C4.71169 2.95988 4.50098 3.46859 4.50098 3.99902V19.999C4.50098 20.5295 4.71169 21.0382 5.08676 21.4132C5.46184 21.7883 5.97054 21.999 6.50098 21.999H18.501C19.0314 21.999 19.5401 21.7883 19.9152 21.4132C20.2903 21.0382 20.501 20.5295 20.501 19.999V6.99902L15.501 1.99902Z" stroke="#046E75" stroke-width="1.5" stroke-linecap="round" stroke-linejoin="round"/>
<path d="M14.499 1.99902V5.99902C14.499 6.52946 14.7097 7.03816 15.0848 7.41324C15.4599 7.78831 15.9686 7.99902 16.499 7.99902H20.499" stroke="#046E75" stroke-width="1.5" stroke-linecap="round" stroke-linejoin="round"/>
<path d="M10.499 9H8.49902" stroke="#046E75" stroke-width="1.5" stroke-linecap="round" stroke-linejoin="round"/>
<path d="M16.499 13.001H8.49902" stroke="#046E75" stroke-width="1.5" stroke-linecap="round" stroke-linejoin="round"/>
<path d="M16.499 16.999H8.49902" stroke="#046E75" stroke-width="1.5" stroke-linecap="round" stroke-linejoin="round"/>
</svg>
