<svg width="61" height="43" viewBox="0 0 61 43" fill="none" xmlns="http://www.w3.org/2000/svg">
<g clip-path="url(#clip0_19272_1904)">
<path d="M55.7495 30.5971C55.7495 30.5971 54.3292 31.6527 54.2305 33.5393L54.4892 33.5623C54.4892 33.5623 54.943 31.6115 55.7628 30.849C56.5827 30.0864 55.7495 30.5971 55.7495 30.5971Z" fill="#599DAD"/>
<path d="M51.1974 26.2626C51.1974 26.2626 53.8671 24.7596 52.6207 22.7204C52.6207 22.7204 51.624 21.468 50.5561 21.1459C50.5561 21.1459 51.1258 24.1874 50.5561 24.2589C49.9864 24.3305 50.1649 20.8238 50.1649 20.8238C50.1649 20.8238 47.3525 19.4643 46.2492 19.5718C46.2492 19.5718 47.9934 22.5414 47.4236 22.4698C46.8539 22.3983 44.8963 19.3919 44.8963 19.3919C44.8963 19.3919 42.0131 18.8552 41.5503 20.5728C41.0875 22.2904 41.835 23.1487 42.2624 23.2562C42.6898 23.3637 45.4302 23.3278 45.359 23.6854C45.2879 24.043 43.4368 24.6157 42.4047 24.2923C42.4047 24.2923 43.5437 27.1188 45.039 26.9758C46.5343 26.8327 46.9967 25.9024 47.9222 25.8309C48.8478 25.7593 49.524 26.0099 49.0612 26.2605C48.5985 26.511 47.0342 26.3424 46.2846 26.981C45.535 27.6195 44.9321 28.0136 46.3204 28.2997C47.7087 28.5858 50.202 28.4072 50.6984 27.3338L51.1974 26.2626Z" fill="#6BB7BF"/>
<path d="M42.8691 21.1113C42.8691 21.1113 50.3443 23.5442 51.1987 26.2636C51.1987 26.2636 51.1629 27.4801 51.9107 28.8756V29.4122C51.9107 29.4122 51.1275 27.5872 50.7001 27.337C50.7001 27.3383 52.3735 24.9752 42.8691 21.1113Z" fill="#6BB7BF"/>
<path d="M51.9102 28.875C51.9102 28.875 53.063 30.6346 52.4057 32.7766L52.109 32.6964C52.109 32.6964 52.3971 30.3373 51.7937 29.1507C51.1903 27.9642 51.9102 28.875 51.9102 28.875Z" fill="#6BB7BF"/>
<path d="M54.5081 27.6338C54.5081 27.6338 52.9887 29.9531 53.8547 32.7765L54.2459 32.6712C54.2459 32.6712 53.8663 29.5612 54.6612 27.997C55.4561 26.4329 54.5081 27.6338 54.5081 27.6338Z" fill="#6BB7BF"/>
<path d="M57.0233 38.8467C56.0535 38.9675 55.0691 38.88 54.1355 38.5898C53.2018 38.2996 52.3402 37.8134 51.6075 37.1633C50.8748 36.5133 50.2879 35.7142 49.8855 34.8191C49.4831 33.9239 49.2745 32.953 49.2734 31.9707H50.9861C50.9863 33.6593 51.5998 35.2898 52.7115 36.5559C53.8231 37.822 55.3564 38.6366 57.0233 38.8467Z" fill="#FFEBDC"/>
<path d="M12.048 23.9747C12.048 23.9747 14.9721 25.2713 15.8912 28.5613L15.4453 28.7052C15.4453 28.7052 13.8745 25.4434 12.1243 24.4247C10.3741 23.4059 12.048 23.9747 12.048 23.9747Z" fill="#599DAD"/>
<path d="M25.6113 21.1151C25.6113 21.1151 28.2349 25.3913 26.517 30.45L25.8158 30.238C25.8158 30.238 26.6684 24.6352 25.3146 21.7641C23.9608 18.8929 25.6113 21.1151 25.6113 21.1151Z" fill="#6BB7BF"/>
<path d="M59.1489 39.2522H22.2283L14.5039 7.44531H51.4245L59.1489 39.2522Z" fill="#C67022"/>
<path d="M6.76562 39.2522H43.6867L51.4111 7.44531H14.4905L6.76562 39.2522Z" fill="#F1A34F"/>
<path d="M9.29688 37.4494H42.0327L48.8816 9.24805H16.1462L9.29688 37.4494Z" fill="white"/>
<path d="M43.1133 16.8139H46.1552L46.7918 14.1934H43.7494L43.1133 16.8139Z" fill="#AFCDFB"/>
<path d="M38.5098 16.8139H41.5517L42.1882 14.1934H39.1459L38.5098 16.8139Z" fill="#AFCDFB"/>
<path d="M33.8535 16.8139H36.8954L37.532 14.1934H34.4901L33.8535 16.8139Z" fill="#AFCDFB"/>
<path d="M29.1973 16.8139H32.2396L32.8757 14.1934H29.8339L29.1973 16.8139Z" fill="#AFCDFB"/>
<path d="M24.541 16.8139H27.5833L28.2195 14.1934H25.1776L24.541 16.8139Z" fill="#AFCDFB"/>
<path d="M19.8848 16.8139H22.9267L23.5632 14.1934H20.5209L19.8848 16.8139Z" fill="#AFCDFB"/>
<path d="M15.2285 16.8139H18.2704L18.907 14.1934H15.8651L15.2285 16.8139Z" fill="#AFCDFB"/>
<path d="M41.8438 21.4487H44.8861L45.5222 18.8281H42.4803L41.8438 21.4487Z" fill="#AFCDFB"/>
<path d="M37.2402 21.4487H40.2821L40.9187 18.8281H37.8768L37.2402 21.4487Z" fill="#AFCDFB"/>
<path d="M32.5859 21.4487H35.6283L36.2644 18.8281H33.2225L32.5859 21.4487Z" fill="#AFCDFB"/>
<path d="M27.9297 21.4487H30.9716L31.6082 18.8281H28.5658L27.9297 21.4487Z" fill="#AFCDFB"/>
<path d="M23.2734 21.4487H26.3153L26.9519 18.8281H23.91L23.2734 21.4487Z" fill="#AFCDFB"/>
<path d="M18.6172 21.4487H21.6591L22.2957 18.8281H19.2538L18.6172 21.4487Z" fill="#AFCDFB"/>
<path d="M13.9609 21.4487H17.0028L17.639 18.8281H14.5971L13.9609 21.4487Z" fill="#AFCDFB"/>
<path d="M40.6914 26.0288H43.7333L44.3699 23.4082H41.328L40.6914 26.0288Z" fill="#AFCDFB"/>
<path d="M36.0879 26.0288H39.1298L39.7664 23.4082H36.7245L36.0879 26.0288Z" fill="#AFCDFB"/>
<path d="M31.4316 26.0288H34.4735L35.1101 23.4082H32.0682L31.4316 26.0288Z" fill="#AFCDFB"/>
<path d="M26.7754 26.0288H29.8173L30.4534 23.4082H27.4115L26.7754 26.0288Z" fill="#AFCDFB"/>
<path d="M22.1191 26.0288H25.161L25.7976 23.4082H22.7557L22.1191 26.0288Z" fill="#AFCDFB"/>
<path d="M17.4629 26.0288H20.5048L21.1414 23.4082H18.0995L17.4629 26.0288Z" fill="#AFCDFB"/>
<path d="M12.8066 26.0288H15.849L16.4851 23.4082H13.4432L12.8066 26.0288Z" fill="#AFCDFB"/>
<path d="M39.5371 30.4921H42.579L43.2156 27.8711H40.1737L39.5371 30.4921Z" fill="#AFCDFB"/>
<path d="M34.9336 30.4921H37.9755L38.6121 27.8711H35.5702L34.9336 30.4921Z" fill="#AFCDFB"/>
<path d="M30.2773 30.4921H33.3192L33.9558 27.8711H30.9139L30.2773 30.4921Z" fill="#AFCDFB"/>
<path d="M25.6211 30.4921H28.6634L29.2996 27.8711H26.2577L25.6211 30.4921Z" fill="#AFCDFB"/>
<path d="M20.9668 30.4921H24.0087L24.6453 27.8711H21.603L20.9668 30.4921Z" fill="#AFCDFB"/>
<path d="M16.3105 30.4921H19.3524L19.989 27.8711H16.9471L16.3105 30.4921Z" fill="#AFCDFB"/>
<path d="M11.6543 30.4921H14.6966L15.3328 27.8711H12.2909L11.6543 30.4921Z" fill="#AFCDFB"/>
<path d="M38.4414 34.896H41.4833L42.1195 32.2754H39.0776L38.4414 34.896Z" fill="#AFCDFB"/>
<path d="M33.8398 34.896H36.8822L37.5183 32.2754H34.4764L33.8398 34.896Z" fill="#AFCDFB"/>
<path d="M29.1836 34.896H32.2255L32.8621 32.2754H29.8202L29.1836 34.896Z" fill="#AFCDFB"/>
<path d="M59.1501 39.2508L51.3084 37.7383L43.6875 39.2508H59.1501Z" fill="#AA5D17"/>
<path d="M44.8839 4.11914C45.773 4.12023 46.6268 4.46937 47.2642 5.09252C47.9015 5.71568 48.2723 6.56385 48.298 7.45719H46.9313C46.912 7.05433 46.7755 6.66601 46.5388 6.34036C46.3021 6.01471 45.9755 5.76606 45.5994 5.62523C45.2234 5.4844 44.8146 5.45759 44.4236 5.54812C44.0325 5.63865 43.6766 5.84254 43.3997 6.13451C43.1229 6.42648 42.9374 6.79369 42.8663 7.19062C42.7951 7.58756 42.8414 7.99676 42.9994 8.36749C43.1574 8.73822 43.4202 9.05419 43.7552 9.27621C44.0902 9.49824 44.4827 9.61657 44.8839 9.61652C45.0622 9.62103 45.2316 9.69537 45.3562 9.8237C45.4807 9.95203 45.5503 10.1242 45.5503 10.3034C45.5503 10.4827 45.4807 10.6548 45.3562 10.7832C45.2316 10.9115 45.0622 10.9858 44.8839 10.9903C43.9776 10.9903 43.1085 10.6285 42.4676 9.98432C41.8268 9.34018 41.4668 8.46655 41.4668 7.5556C41.4668 6.64466 41.8268 5.77102 42.4676 5.12688C43.1085 4.48275 43.9776 4.12087 44.8839 4.12087V4.11914Z" fill="#1C468A"/>
<path d="M36.2277 4.11914C37.1168 4.12023 37.9706 4.46935 38.6081 5.0925C39.2455 5.71564 39.6164 6.56381 39.6422 7.45719H38.2754C38.2562 7.05435 38.1197 6.66604 37.883 6.3404C37.6463 6.01476 37.3197 5.76611 36.9437 5.62527C36.5677 5.48443 36.1589 5.45759 35.7679 5.54808C35.3769 5.63858 35.0209 5.84242 34.7441 6.13435C34.4672 6.42628 34.2817 6.79345 34.2105 7.19036C34.1393 7.58726 34.1855 7.99645 34.3435 8.36719C34.5014 8.73793 34.7642 9.05393 35.0991 9.27601C35.434 9.49809 35.8264 9.61648 36.2277 9.61652C36.3188 9.61422 36.4096 9.63029 36.4945 9.66377C36.5794 9.69726 36.6568 9.74748 36.7221 9.8115C36.7874 9.87551 36.8393 9.95201 36.8747 10.0365C36.9102 10.121 36.9284 10.2117 36.9284 10.3034C36.9284 10.3951 36.9102 10.4859 36.8747 10.5704C36.8393 10.6548 36.7874 10.7313 36.7221 10.7954C36.6568 10.8594 36.5794 10.9096 36.4945 10.9431C36.4096 10.9766 36.3188 10.9926 36.2277 10.9903C35.3214 10.9903 34.4522 10.6285 33.8114 9.98432C33.1706 9.34018 32.8105 8.46655 32.8105 7.5556C32.8105 6.64466 33.1706 5.77102 33.8114 5.12688C34.4522 4.48275 35.3214 4.12087 36.2277 4.12087V4.11914Z" fill="#1C468A"/>
<path d="M27.5714 4.11914C28.4605 4.12023 29.3143 4.46937 29.9516 5.09252C30.589 5.71568 30.9598 6.56385 30.9855 7.45719H29.6187C29.5995 7.05433 29.463 6.66601 29.2263 6.34036C28.9896 6.01471 28.6629 5.76606 28.2869 5.62523C27.9109 5.4844 27.5021 5.45759 27.1111 5.54812C26.72 5.63865 26.3641 5.84254 26.0872 6.13451C25.8104 6.42648 25.6249 6.79369 25.5537 7.19062C25.4826 7.58756 25.5289 7.99676 25.6869 8.36749C25.8449 8.73822 26.1077 9.05419 26.4427 9.27621C26.7777 9.49824 27.1702 9.61657 27.5714 9.61652C27.7497 9.62103 27.9191 9.69537 28.0436 9.8237C28.1681 9.95203 28.2378 10.1242 28.2378 10.3034C28.2378 10.4827 28.1681 10.6548 28.0436 10.7832C27.9191 10.9115 27.7497 10.9858 27.5714 10.9903C26.6651 10.9903 25.796 10.6285 25.1551 9.98432C24.5143 9.34018 24.1543 8.46655 24.1543 7.5556C24.1543 6.64466 24.5143 5.77102 25.1551 5.12688C25.796 4.48275 26.6651 4.12087 27.5714 4.12087V4.11914Z" fill="#1C468A"/>
<path d="M18.9152 4.11914C19.8043 4.12023 20.6581 4.46935 21.2956 5.0925C21.933 5.71564 22.3039 6.56381 22.3297 7.45719H20.9629C20.9437 7.05435 20.8072 6.66604 20.5705 6.3404C20.3338 6.01476 20.0072 5.76611 19.6312 5.62527C19.2552 5.48443 18.8464 5.45759 18.4554 5.54808C18.0644 5.63858 17.7084 5.84242 17.4316 6.13435C17.1547 6.42628 16.9692 6.79345 16.898 7.19036C16.8268 7.58726 16.873 7.99645 17.031 8.36719C17.1889 8.73793 17.4517 9.05393 17.7866 9.27601C18.1215 9.49809 18.5139 9.61648 18.9152 9.61652C19.0063 9.61422 19.0971 9.63029 19.182 9.66377C19.2669 9.69726 19.3443 9.74748 19.4096 9.8115C19.4749 9.87551 19.5268 9.95201 19.5622 10.0365C19.5977 10.121 19.6159 10.2117 19.6159 10.3034C19.6159 10.3951 19.5977 10.4859 19.5622 10.5704C19.5268 10.6548 19.4749 10.7313 19.4096 10.7954C19.3443 10.8594 19.2669 10.9096 19.182 10.9431C19.0971 10.9766 19.0063 10.9926 18.9152 10.9903C18.0089 10.9903 17.1397 10.6285 16.4989 9.98432C15.8581 9.34018 15.498 8.46655 15.498 7.5556C15.498 6.64466 15.8581 5.77102 16.4989 5.12688C17.1397 4.48275 18.0089 4.12087 18.9152 4.12087V4.11914Z" fill="#1C468A"/>
<path d="M51.4121 7.44531L51.3086 37.7397L59.1503 39.2522L51.4121 7.44531Z" fill="#D88029"/>
<path d="M27.0599 18.5118C25.8803 18.856 24.6792 18.902 23.7278 18.7399C22.7668 18.5782 22.1199 18.0441 21.9495 17.4527C21.7947 16.9169 22.0224 16.3165 22.6086 15.7157C22.0479 16.2914 21.8491 16.9538 21.9897 17.441C22.1458 17.9816 22.766 18.3809 23.6902 18.537C24.6391 18.6965 25.8083 18.5955 26.9853 18.2522C28.1623 17.9088 29.2043 17.3647 29.9181 16.7197C30.6163 16.0906 30.9269 15.4191 30.7707 14.8794C30.6055 14.3072 29.9103 13.7384 28.9563 13.3955C27.8716 13.0053 26.6963 13.0868 25.5858 13.4107C23.5009 14.0176 22.7768 14.7333 22.1997 15.5323C22.7789 14.7299 23.4353 13.8203 25.528 13.21C26.6504 12.8851 27.8458 12.9212 28.9468 13.3131C29.9211 13.663 30.6357 14.2586 30.8113 14.8677C30.9838 15.459 30.6763 16.1444 29.9487 16.7981C29.2362 17.4454 28.2399 18.1676 27.0599 18.5118Z" fill="#C65447"/>
<path d="M6.01758 22.5371C6.01758 22.5371 6.11246 23.4661 6.21683 23.6417C6.32121 23.8172 6.76543 24.3786 6.95434 24.4892C7.14325 24.5997 6.83876 23.7496 6.87757 23.584C6.91639 23.4184 7.03327 23.8875 7.11651 23.897C7.19974 23.9065 7.17861 23.4873 7.18163 23.3334C7.18465 23.1795 6.77579 22.8024 6.63174 22.4764C6.48768 22.1504 6.01758 22.5371 6.01758 22.5371Z" fill="#FFB27D"/>
<path d="M17.373 13.9698L17.5857 13.567C17.5857 13.567 17.48 12.8491 18.3749 12.3966C18.3749 12.3966 18.7019 12.263 18.8864 12.5309C19.059 12.778 18.5625 12.7334 18.5893 13.1556C18.616 13.5779 18.4168 13.8263 18.1382 13.9637L17.9087 14.2312L17.373 13.9698Z" fill="#FFB27D"/>
<path d="M8.91602 13.0071C8.91602 13.0071 9.68414 16.7982 13.9134 18.0358C15.2336 18.4225 18.2323 14.054 18.2323 14.054C18.2323 14.054 18.1271 13.6513 17.4663 13.7441C17.4663 13.7441 14.5465 15.6871 14.1786 15.8982C13.8526 16.0855 11.7073 13.4904 10.7283 13.0717C9.74927 12.6529 8.91602 13.0071 8.91602 13.0071Z" fill="#AA413E"/>
<path d="M16.2434 12.8678L16.3633 13.6523L20.2903 13.0462L20.1704 12.2616L16.2434 12.8678Z" fill="#AA413E"/>
<path d="M21.1429 12.5112L20.2898 13.0444L20.1699 12.2598L21.1429 12.5112Z" fill="#FFB27D"/>
<path d="M15.8233 13.198L15.8613 13.4464C15.8669 13.4827 15.8795 13.5175 15.8985 13.5489C15.9174 13.5803 15.9424 13.6076 15.9718 13.6293C16.0013 13.651 16.0348 13.6666 16.0703 13.6753C16.1058 13.684 16.1426 13.6856 16.1787 13.68L16.3603 13.6518L16.2404 12.8672L16.0429 12.898C16.0088 12.9032 15.9762 12.915 15.9467 12.9329C15.9173 12.9508 15.8916 12.9744 15.8712 13.0022C15.8508 13.0301 15.8361 13.0617 15.8279 13.0953C15.8197 13.1289 15.8181 13.1638 15.8233 13.198Z" fill="#FFB27D"/>
<path d="M3.86709 36.8389C3.86709 36.8389 3.34264 37.3201 3.44485 37.6626C3.54707 38.0051 4.02063 38.2327 4.08489 38.6506C4.14915 39.0685 4.40447 39.2965 4.63478 39.2965H5.73112C5.73112 39.2965 5.90105 39.0022 5.49133 38.9137C5.0816 38.8253 4.92763 38.3337 4.95308 37.8781C4.97852 37.4224 4.91469 36.8142 4.91469 36.8142L4.04478 36.6113L3.86709 36.8389Z" fill="#233862"/>
<path d="M10.3024 38.0841C10.3024 38.0841 10.2079 39.1796 10.4382 39.2936L13.3861 39.2875C13.3861 39.2875 13.3861 38.9455 12.9117 38.8696C12.4373 38.7937 11.6066 38.515 11.466 37.8942C11.3254 37.2734 10.3024 38.0841 10.3024 38.0841Z" fill="#233862"/>
<path d="M12.7912 22.6119C12.7912 22.6119 12.6355 24.5315 12.4531 26.8395C12.2047 29.9742 11.9058 33.8247 11.8765 34.556C11.8251 35.8228 11.6203 37.8508 11.6203 37.8508C11.6203 37.8508 11.1342 38.3319 10.1616 38.1291C10.1616 38.1291 9.29475 35.2367 9.04719 32.1765L9.03555 32.0252C8.80524 28.9095 8.44727 22.3496 8.44727 22.3496L12.7912 22.6119Z" fill="#2B478B"/>
<path d="M12.7925 22.6127C12.7925 22.6127 12.6368 24.5323 12.4544 26.8404L9.04719 32.1726L9.03555 32.0213C8.80524 28.9056 8.44727 22.3457 8.44727 22.3457L12.7925 22.6127Z" fill="#233862"/>
<path d="M12.0824 22.841C12.0824 22.841 9.27902 29.7936 7.43741 33.061C5.5958 36.3284 5.01873 37.2405 5.01873 37.2405C5.01873 37.2405 3.96337 36.8222 3.86719 36.5374C3.86719 36.5374 4.57192 30.2298 5.80799 28.6908C6.50539 27.8238 7.32441 25.214 7.36064 24.3023C7.39687 23.3907 7.60993 21.5859 7.60993 21.5859L12.0824 22.841Z" fill="#2B478B"/>
<path d="M8.39453 12.1257C8.39453 12.1257 10.2922 13.0452 11.3838 12.704C11.1758 12.4614 10.9248 12.2596 10.6437 12.1088C10.6817 11.8886 10.711 11.697 10.7278 11.5349C10.754 11.3403 10.7694 11.1445 10.774 10.9483L10.0408 10.3696L9.34725 9.81641C9.40332 11.3727 8.39453 12.1257 8.39453 12.1257Z" fill="#FFB27D"/>
<path d="M7.39654 21.9425C7.39223 22.0592 7.64022 22.1922 7.74977 22.2421C8.56102 22.6002 9.31794 22.849 10.1753 22.9331C11.1889 23.0372 12.387 22.8083 12.7989 22.8165C12.8411 22.8159 12.8815 22.7995 12.9123 22.7706C12.9416 22.7497 12.9628 21.5225 12.9416 19.9787C12.9416 19.9163 12.9416 19.8539 12.9378 19.7914V19.7706C12.9291 19.1672 12.9084 18.5347 12.8787 17.9026C12.82 16.5128 12.7105 15.1715 12.5254 14.4319C12.3029 13.5584 11.7983 12.9801 11.3403 12.5596L10.9616 12.2266C10.5646 12.3131 10.1502 12.2633 9.7846 12.0853C9.34727 11.8733 8.8763 11.6444 8.80082 11.7025C8.22893 12.1226 7.84206 13.0672 7.63634 14.2741C7.51366 15.0306 7.45594 15.7962 7.46382 16.5626C7.46382 16.8622 7.47245 17.1696 7.48927 17.473C7.58976 19.1204 7.48927 20.551 7.43018 21.3798C7.41379 21.6222 7.40085 21.8095 7.39654 21.9425Z" fill="#C65447"/>
<path d="M7.42969 21.8682C14.0694 21.8547 8.65412 14.6285 8.65412 14.6285L7.57848 14.2773C7.48974 15.0892 7.44812 15.9056 7.45384 16.7224C7.45384 17.0423 7.45988 17.3726 7.47238 17.696C7.54527 19.4539 7.47239 20.9834 7.42969 21.8682Z" fill="#AA413E"/>
<path d="M9.33594 10.4127C9.33594 10.4127 9.81553 11.291 10.7277 11.5364C10.7539 11.3419 10.7693 11.1461 10.7739 10.9498L10.0407 10.3711L9.33594 10.4127Z" fill="#ED985F"/>
<path d="M11.1086 10.9225C11.1086 10.9225 9.30025 11.2199 9.13032 10.1023C8.96039 8.98471 8.61277 8.27027 9.76043 8.03314C10.9081 7.79601 11.1979 8.18877 11.3463 8.54816C11.4947 8.90754 11.5749 10.8163 11.1086 10.9225Z" fill="#FFB27D"/>
<path d="M8.47286 7.89967C8.45604 7.8806 8.41852 7.86543 8.33398 7.86066C8.38221 7.83366 8.43622 7.81879 8.4914 7.81731C8.50909 7.69939 8.57163 7.49087 8.77304 7.44015C8.74023 7.4595 8.71217 7.48604 8.69097 7.51778C8.66976 7.54953 8.65595 7.58567 8.65055 7.62353C8.88431 7.38249 9.38374 7.20692 10.7712 7.3166C12.5982 7.46182 11.9961 8.63751 11.7593 8.77754C11.5225 8.91756 10.9278 8.53347 10.487 8.56858C10.0462 8.6037 9.96254 9.244 9.81288 9.33157C9.66322 9.41914 9.72231 9.26437 9.52003 9.17247C9.31776 9.08056 9.29835 9.4174 9.357 9.63633C9.41566 9.85525 9.13748 10.1444 9.13748 10.1444L8.85671 9.84095C8.57594 9.53749 8.31113 8.24952 8.43879 7.97684C8.44871 7.94909 8.46121 7.92438 8.47286 7.89967Z" fill="#2C3A64"/>
<path d="M8.80003 11.6934C8.80003 11.6934 7.65539 12.2379 7.10679 13.0754C6.25542 14.3759 5.26906 19.1086 5.25224 19.5469C5.23542 19.9852 5.97206 23.0805 5.97206 23.0805C5.97206 23.0805 6.72121 23.0306 6.914 22.6508C6.914 22.6508 6.76434 19.4706 6.85923 19.2664C6.95411 19.0622 9.98134 15.0006 9.64062 14.134C9.2999 13.2674 8.80003 11.6934 8.80003 11.6934Z" fill="#C65447"/>
<path d="M17.5913 13.5467C17.5913 13.5467 17.5287 13.2996 17.6995 13.1886C17.8703 13.0777 18.0269 12.7755 18.0989 12.8163C18.2477 12.903 18.0174 13.1631 18.0592 13.4934C18.0721 13.6083 17.8069 13.91 17.5913 13.5467Z" fill="#FFB27D"/>
<path d="M80.9659 39.2285H-20.7699C-20.8247 39.2285 -20.8691 39.2731 -20.8691 39.3281V39.3467C-20.8691 39.4017 -20.8247 39.4462 -20.7699 39.4462H80.9659C81.0207 39.4462 81.0651 39.4017 81.0651 39.3467V39.3281C81.0651 39.2731 81.0207 39.2285 80.9659 39.2285Z" fill="#1C468A"/>
</g>
<defs>
<clipPath id="clip0_19272_1904">
<rect width="61" height="42" fill="white" transform="translate(0 0.5)"/>
</clipPath>
</defs>
</svg>
